<?xml version="1.0" encoding="UTF-8"?>
<svg width="100%" height="100%" viewBox="0 0 200 200" version="1.1" xmlns="http://www.w3.org/2000/svg">
    <g fill="none" fill-rule="evenodd">
        <rect width="200" height="200" fill="#000000"/>
        <path d="M157.5,85.4c0.3,2.9,0.5,5.8,0.5,8.6c0,27.3-22.1,49.4-49.4,49.4c-27.3,0-49.4-22.1-49.4-49.4 c0-2.9,0.2-5.8,0.5-8.6c-1.2,0.1-2.3,0.2-3.5,0.2c-21.9,0-39.6-17.7-39.6-39.6S34.3,6.4,56.2,6.4c13.5,0,25.4,6.7,32.6,17 c7.2-10.3,19.1-17,32.6-17c21.9,0,39.6,17.7,39.6,39.6s-17.7,39.6-39.6,39.6C159.8,85.6,158.7,85.5,157.5,85.4z" fill="#EE0000"/>
        <path d="M121.4,70.8c10.9,0,19.7-8.8,19.7-19.7s-8.8-19.7-19.7-19.7c-7.1,0-13.3,3.8-16.8,9.4 c3.5,5.6,5.6,12.2,5.6,19.3c0,3.7-0.6,7.3-1.6,10.7C112.1,69.7,116.6,70.8,121.4,70.8z" fill="#FFFFFF"/>
        <path d="M78.6,70.8c4.8,0,9.3-1.1,13.4-3c-1-3.4-1.6-7-1.6-10.7c0-7.1,2.1-13.7,5.6-19.3 c-3.5-5.6-9.7-9.4-16.8-9.4c-10.9,0-19.7,8.8-19.7,19.7S67.7,70.8,78.6,70.8z" fill="#FFFFFF"/>
        <path d="M108.6,94.1c13.6,0,24.7-11.1,24.7-24.7c0-13.6-11.1-24.7-24.7-24.7c-13.6,0-24.7,11.1-24.7,24.7 C83.9,83,94.9,94.1,108.6,94.1z" fill="#FFFFFF"/>
    </g>
</svg>
