<?xml version="1.0" encoding="UTF-8"?>
<svg width="100%" height="100%" viewBox="0 0 200 140" version="1.1" xmlns="http://www.w3.org/2000/svg">
    <g fill="#00A1E0">
        <path d="M104.2,32.3c-8.2-3.6-17.3-3.6-25.5,0c-8.2,3.6-14.7,10.1-18.3,18.3c-3.6,8.2-3.6,17.3,0,25.5 c3.6,8.2,10.1,14.7,18.3,18.3c8.2,3.6,17.3,3.6,25.5,0c8.2-3.6,14.7-10.1,18.3-18.3c3.6-8.2,3.6-17.3,0-25.5 C118.9,42.4,112.4,35.9,104.2,32.3z M91.4,84.5c-7.8,0-14.1-6.3-14.1-14.1c0-7.8,6.3-14.1,14.1-14.1c7.8,0,14.1,6.3,14.1,14.1 C105.5,78.2,99.2,84.5,91.4,84.5z"/>
        <path d="M91.4,0C41.3,0,0.5,40.8,0.5,90.9c0,50.1,40.8,90.9,90.9,90.9c50.1,0,90.9-40.8,90.9-90.9 C182.3,40.8,141.5,0,91.4,0z M91.4,162.7c-39.7,0-71.8-32.1-71.8-71.8c0-39.7,32.1-71.8,71.8-71.8c39.7,0,71.8,32.1,71.8,71.8 C163.2,130.6,131.1,162.7,91.4,162.7z"/>
    </g>
</svg>
